<svg width="500" height="500" viewBox="0 0 72 72" xmlns="http://www.w3.org/2000/svg" style="background:#F0EBE3">
<path d="M47 19.2411V61.125H64V10.125H47V14.3136H59.4126V56.9403H54.0157V19.2411H47Z" fill="#2B2B2B"/>
<path d="M31 25.1254V61.125H41V25.125L36 27.8942L31 25.1254Z" fill="#FDB719"/>
<path d="M25 10.125H8V61.125H25V19.2411H18.0373V56.9656H12.6118V14.3136H25V10.125Z" fill="#2B2B2B"/>
<path d="M35.9545 16.605C38.8872 16.605 41.2645 14.2276 41.2645 11.295C41.2645 8.36235 38.8872 5.98499 35.9545 5.98499C33.0219 5.98499 30.6445 8.36235 30.6445 11.295C30.6445 14.2276 33.0219 16.605 35.9545 16.605Z" fill="transparent" stroke="#FDB719" stroke-width="3"/>
</svg>
