<svg width="34" height="28" viewBox="0 0 34 28" fill="none" xmlns="http://www.w3.org/2000/svg">
<path d="M0 27.6552H33.12V20.7414H0V27.6552ZM3.312 22.4699H6.624V25.9268H3.312V22.4699ZM0 0V6.9138H33.12V0H0ZM6.624 5.18535H3.312V1.72845H6.624V5.18535ZM0 17.2845H33.12V10.3707H0V17.2845ZM3.312 12.0992H6.624V15.5561H3.312V12.0992Z" fill="#FDB719"/>
<path d="M0 27.6552H33.12V20.7414H0V27.6552ZM3.312 22.4699H6.624V25.9268H3.312V22.4699ZM0 0V6.9138H33.12V0H0ZM6.624 5.18535H3.312V1.72845H6.624V5.18535ZM0 17.2845H33.12V10.3707H0V17.2845ZM3.312 12.0992H6.624V15.5561H3.312V12.0992Z" fill="#FDB719"/>
</svg>
