<svg width="34" height="28" viewBox="0 0 34 28" fill="none" xmlns="http://www.w3.org/2000/svg">
<path d="M29.808 0H3.312C1.4904 0 0.01656 1.55561 0.01656 3.4569L0 24.1983C0 26.0996 1.4904 27.6552 3.312 27.6552H29.808C31.6296 27.6552 33.12 26.0996 33.12 24.1983V3.4569C33.12 1.55561 31.6296 0 29.808 0ZM21.528 24.1983H3.312V17.2845H21.528V24.1983ZM21.528 15.5561H3.312V8.64225H21.528V15.5561ZM29.808 24.1983H23.184V8.64225H29.808V24.1983Z" fill="#FDB719"/>
<path d="M29.808 0H3.312C1.4904 0 0.01656 1.55561 0.01656 3.4569L0 24.1983C0 26.0996 1.4904 27.6552 3.312 27.6552H29.808C31.6296 27.6552 33.12 26.0996 33.12 24.1983V3.4569C33.12 1.55561 31.6296 0 29.808 0ZM21.528 24.1983H3.312V17.2845H21.528V24.1983ZM21.528 15.5561H3.312V8.64225H21.528V15.5561ZM29.808 24.1983H23.184V8.64225H29.808V24.1983Z" fill="#FDB719"/>
</svg>
