<?xml version="1.0" standalone="no"?>
<!DOCTYPE svg PUBLIC "-//W3C//DTD SVG 20010904//EN"
 "http://www.w3.org/TR/2001/REC-SVG-20010904/DTD/svg10.dtd">
<svg version="1.0" xmlns="http://www.w3.org/2000/svg"
 width="363.000000pt" height="120.000000pt" viewBox="0 0 363.000000 120.000000"
 preserveAspectRatio="xMidYMid meet">
<metadata>
Created by potrace 1.10, written by Peter Selinger 2001-2011
</metadata>
<g transform="translate(0.000000,120.000000) scale(0.100000,-0.100000)"
fill="#000000" stroke="none">
<path d="M371 1163 c-87 -18 -202 -153 -201 -235 1 -52 31 -103 60 -103 24 0
25 2 26 71 2 106 40 172 123 215 33 17 49 20 70 13 45 -16 39 -49 -39 -211
-39 -81 -75 -157 -80 -168 -45 -102 -62 -140 -90 -205 -18 -41 -48 -108 -66
-148 -19 -41 -34 -75 -34 -78 0 -2 -29 -65 -65 -139 -36 -73 -65 -139 -65
-145 0 -24 46 -3 75 35 25 34 114 217 172 355 8 19 18 44 23 55 5 11 18 43 30
70 12 28 25 59 30 70 5 11 32 79 60 150 28 72 55 139 60 150 5 11 12 30 15 43
6 22 29 30 39 14 3 -5 1 -49 -4 -98 -12 -124 -25 -448 -23 -574 2 -129 12
-160 51 -160 26 0 31 5 42 48 31 109 309 702 344 731 25 21 31 5 18 -42 -90
-318 -132 -538 -132 -690 0 -119 23 -166 81 -167 36 0 40 8 24 47 -30 72 -7
289 76 698 35 174 53 239 85 314 33 75 32 83 -13 79 -36 -3 -42 -9 -106 -103
-160 -238 -283 -468 -333 -625 -9 -30 -23 -64 -31 -75 -7 -11 -13 -29 -14 -40
0 -16 -3 -14 -11 8 -7 20 -5 65 8 165 11 88 18 209 18 337 1 174 -1 206 -18
250 -29 75 -44 87 -118 90 -35 2 -74 1 -87 -2z"/>
<path d="M1295 1141 c-22 -10 -48 -27 -58 -38 -15 -17 -16 -22 -3 -32 11 -9
27 -10 68 -1 81 17 238 33 245 26 4 -4 -1 -30 -10 -59 -21 -68 -41 -143 -62
-242 -67 -312 -153 -624 -183 -657 -8 -10 -28 -17 -46 -16 -102 3 -186 -34
-186 -82 0 -17 7 -20 39 -20 22 0 52 5 68 11 17 7 103 12 223 13 187 1 196 2
228 24 18 13 30 28 27 33 -4 5 -69 9 -145 9 -90 0 -141 4 -146 11 -3 6 2 23
13 37 39 53 76 142 94 222 4 19 17 78 28 130 12 52 33 154 47 225 13 72 29
146 34 165 5 20 12 69 16 110 4 41 12 78 18 83 6 4 63 6 126 5 101 -2 119 0
142 17 59 43 45 45 -254 44 -250 0 -288 -3 -323 -18z"/>
<path d="M2022 644 c-18 -10 -45 -33 -60 -52 -23 -30 -28 -47 -31 -113 -3 -67
1 -86 22 -133 14 -31 31 -56 36 -56 6 0 11 -9 11 -19 0 -27 -116 -121 -149
-121 -24 0 -51 41 -51 78 0 58 42 178 81 234 25 34 24 38 -8 38 -51 -1 -102
-63 -139 -168 -28 -81 -30 -124 -5 -178 32 -71 106 -81 199 -27 24 14 57 43
74 64 30 38 32 38 94 37 47 -2 67 2 82 15 10 9 26 17 35 17 14 0 16 -8 11 -58
-6 -52 -4 -61 20 -89 57 -67 157 -46 239 49 22 27 44 48 48 48 4 0 10 -15 13
-33 10 -50 30 -69 80 -74 73 -9 109 3 159 52 25 25 48 45 52 45 4 0 4 -13 0
-29 -5 -23 -1 -31 20 -45 26 -17 28 -17 51 5 13 12 24 28 24 34 0 39 170 245
235 285 36 22 95 26 113 8 17 -17 15 -87 -3 -139 -44 -124 -38 -171 29 -203
45 -21 67 -20 118 6 80 42 186 185 174 234 -7 28 -24 28 -40 -2 -65 -117 -141
-204 -178 -204 -23 0 -48 33 -48 63 0 15 11 52 25 83 46 103 45 178 -1 234
-22 25 -33 30 -71 30 -37 0 -58 -8 -112 -44 -36 -25 -75 -59 -86 -75 -11 -17
-23 -31 -27 -31 -5 0 -8 -6 -8 -12 0 -19 -47 -60 -55 -49 -3 6 4 37 15 70 11
33 20 71 20 85 0 31 -30 42 -67 24 -24 -11 -29 -21 -35 -71 -13 -105 -80 -210
-172 -271 -84 -56 -126 -46 -126 29 0 32 10 56 45 109 48 74 52 85 33 104 -28
28 -54 13 -98 -55 -25 -38 -82 -105 -128 -151 -84 -83 -108 -94 -156 -76 -20
8 -21 55 -2 115 65 208 240 375 331 315 21 -14 25 -24 25 -61 0 -40 2 -45 23
-45 33 0 47 18 47 60 0 28 -8 44 -35 70 -33 32 -39 34 -103 34 -82 0 -138 -29
-223 -115 -49 -49 -119 -141 -119 -155 0 -16 -55 -74 -71 -74 -10 0 -21 -4
-24 -10 -8 -13 -95 -13 -95 0 0 6 15 39 34 74 46 85 66 166 54 216 -19 73 -83
105 -146 74z m91 -131 c-1 -31 -7 -61 -12 -66 -6 -6 -11 -17 -11 -25 0 -19
-39 -102 -48 -102 -19 1 -31 20 -46 74 -21 83 -8 144 41 186 l36 32 21 -21
c17 -18 21 -32 19 -78z"/>
</g>
</svg>
