<?xml version="1.0" standalone="no"?>
<!DOCTYPE svg PUBLIC "-//W3C//DTD SVG 20010904//EN"
 "http://www.w3.org/TR/2001/REC-SVG-20010904/DTD/svg10.dtd">
<svg version="1.0" xmlns="http://www.w3.org/2000/svg"
 width="121.000000pt" height="40.000000pt" viewBox="0 0 121.000000 40.000000"
 preserveAspectRatio="xMidYMid meet">
<metadata>
Created by potrace 1.10, written by Peter Selinger 2001-2011
</metadata>
<g transform="translate(0.000000,40.000000) scale(0.100000,-0.100000)"
fill="#000000" stroke="none">
<path d="M85 359 c-26 -32 -30 -69 -7 -77 8 -2 12 7 12 27 0 33 30 71 55 71 8
0 15 -6 15 -13 0 -7 -34 -89 -75 -182 -70 -156 -88 -209 -51 -153 18 27 98
209 116 262 15 47 29 46 24 -1 -14 -150 -12 -243 8 -243 5 0 14 14 20 31 17
48 108 232 113 227 2 -2 -4 -37 -15 -78 -27 -108 -34 -175 -20 -199 13 -26 33
-28 25 -2 -10 33 32 274 60 344 5 11 3 17 -6 17 -23 0 -121 -166 -154 -260
-11 -30 -12 -18 -7 91 6 147 -1 169 -52 169 -26 0 -41 -8 -61 -31z"/>
<path d="M424 375 c-17 -14 -14 -15 40 -9 54 6 58 5 53 -12 -4 -11 -20 -77
-36 -147 -36 -151 -41 -162 -76 -165 -30 -2 -45 -9 -45 -21 0 -11 172 -1 184
10 6 5 -12 9 -42 9 l-52 0 15 24 c16 24 65 236 65 281 0 23 3 25 49 25 28 0
53 5 56 10 11 18 -188 13 -211 -5z"/>
<path d="M662 208 c-15 -15 -16 -73 -1 -100 10 -18 8 -24 -12 -39 -17 -13 -27
-15 -36 -7 -17 14 -16 27 6 71 15 30 16 37 4 37 -19 0 -55 -83 -46 -107 14
-38 30 -40 75 -10 43 30 100 43 91 22 -7 -19 14 -45 37 -45 9 0 29 9 43 20 21
17 26 18 31 5 8 -23 60 -18 82 7 l19 22 -28 -17 c-15 -10 -32 -15 -37 -12 -14
9 -12 37 5 59 19 25 19 36 0 36 -8 0 -15 -4 -15 -8 0 -18 -73 -92 -91 -92 -23
0 -24 9 -3 58 31 75 99 119 111 72 7 -26 23 -26 23 0 0 13 -10 24 -26 30 -35
14 -78 -11 -119 -67 -28 -40 -60 -61 -72 -50 -3 3 3 26 12 51 14 37 15 49 5
61 -15 18 -42 19 -58 3z m48 -28 c0 -24 -21 -70 -32 -70 -16 0 -13 67 4 87 13
16 28 7 28 -17z"/>
<path d="M1041 154 l-41 -36 6 31 c5 24 3 31 -10 31 -10 0 -16 -8 -16 -23 0
-12 -6 -31 -13 -42 -16 -24 -19 -62 -7 -70 5 -3 14 5 21 17 19 37 82 98 101
98 20 0 23 -19 9 -67 -10 -35 1 -53 32 -53 23 0 77 53 77 76 0 11 -11 2 -31
-25 -32 -45 -56 -50 -51 -10 2 13 4 42 5 64 2 34 -1 40 -20 43 -14 2 -36 -10
-62 -34z"/>
</g>
</svg>
