<?xml version="1.0" standalone="no"?>
<!DOCTYPE svg PUBLIC "-//W3C//DTD SVG 20010904//EN"
 "http://www.w3.org/TR/2001/REC-SVG-20010904/DTD/svg10.dtd">
<svg version="1.0" xmlns="http://www.w3.org/2000/svg"
 width="121.000000pt" height="40.000000pt" viewBox="0 0 121.000000 40.000000"
 preserveAspectRatio="xMidYMid meet">
<metadata>
Created by potrace 1.10, written by Peter Selinger 2001-2011
</metadata>
<g transform="translate(0.000000,40.000000) scale(0.050000,-0.050000)"
fill="#000000" stroke="none">
<path d="M267 785 c-73 -12 -150 -98 -143 -159 7 -65 56 -88 56 -26 0 78 58
159 115 160 44 0 28 -47 -125 -380 -82 -179 -150 -336 -150 -347 0 -70 97 98
201 348 l121 289 -9 -261 c-5 -144 -3 -274 6 -288 18 -29 61 -12 61 25 0 29
214 474 227 474 5 0 -3 -47 -18 -103 -74 -280 -83 -497 -22 -497 20 0 30 50
39 185 11 161 63 433 105 540 9 24 4 35 -18 35 -32 0 -223 -307 -273 -440 -45
-120 -50 -105 -50 153 0 273 -16 311 -123 292z"/>
<path d="M849 749 c-36 -29 -30 -30 79 -18 109 12 117 10 104 -24 -8 -20 -32
-113 -54 -207 -87 -378 -95 -395 -174 -414 -150 -36 -98 -67 89 -54 191 14
277 48 121 48 -52 0 -94 3 -94 8 0 4 14 40 31 81 17 41 49 165 71 277 22 112
44 224 49 249 8 38 23 45 98 45 49 0 94 9 101 20 22 36 -376 25 -421 -11z"/>
<path d="M1324 416 c-13 -13 -24 -36 -24 -50 0 -14 -18 -26 -40 -26 -21 0 -53
-21 -69 -46 -109 -167 -3 -299 139 -174 73 64 145 62 158 -3 14 -70 105 -80
161 -19 34 38 35 38 72 1 41 -41 83 -35 145 18 28 24 35 25 30 5 -11 -46 40
-47 64 -1 106 197 270 261 222 86 -24 -87 -2 -127 69 -127 50 0 149 103 149
156 0 20 -20 3 -51 -41 -80 -118 -142 -85 -92 49 50 130 -62 177 -171 72 l-66
-64 0 54 c0 74 -52 70 -67 -6 -17 -86 -142 -218 -176 -185 -20 20 -18 39 9 95
41 87 42 90 4 90 -16 0 -30 -7 -30 -16 0 -31 -143 -184 -172 -184 -71 0 -11
183 84 258 67 53 102 53 118 2 16 -51 50 -52 50 -1 0 22 -18 49 -40 61 -79 43
-147 -1 -305 -197 -72 -90 -119 -46 -63 60 58 113 -25 216 -108 133z m96 -43
c0 -52 -44 -153 -62 -142 -21 13 -25 136 -5 156 24 23 67 14 67 -14z m-109
-128 c28 -69 28 -76 -4 -100 -80 -58 -113 3 -67 124 25 68 34 65 71 -24z"/>
</g>
</svg>
