<svg width="75" height="75" viewBox="0 0 75 75" fill="none" xmlns="http://www.w3.org/2000/svg">
<path fill-rule="evenodd" clip-rule="evenodd" d="M38.3311 -0.00198364C58.5829 -0.00198364 75.0002 16.2059 75.0002 36.1995C75.0002 56.1931 58.5829 72.4008 38.3311 72.4008C28.9966 72.4008 9.89316 65.7517 2.22314 73.3245C-5.44687 80.8972 9.23195 60.3275 8.95821 59.8413C7.08742 56.5166 1.66143 45.3982 1.66143 36.1995C1.66188 16.2059 18.0792 -0.00198364 38.3311 -0.00198364ZM37.8726 9.84224C23.642 9.84224 12.1059 21.5853 12.1059 36.0713C12.1059 50.5572 23.7371 60.6282 37.8726 62.3003C49.7992 63.7111 57.1944 64.2624 61.5655 64.1623C61.5655 64.1623 56.4712 56.0073 60.4082 48.7983C62.5388 44.8866 63.6493 40.5127 63.6394 36.0713C63.6394 21.5853 52.1032 9.84224 37.8726 9.84224ZM36.9161 38.1194C48.4692 38.4781 48.6057 37.0215 48.5063 48.4699C48.4883 50.531 48.4272 51.4458 45.5152 51.4273C41.8529 51.4041 42.7423 48.2235 42.7111 45.3278C42.68 42.4321 37.0719 43.726 31.8688 43.4788C28.0506 43.1523 26.7477 40.4918 26.6346 38.3035C26.5769 37.1882 27.1256 35.8695 27.1954 35.7158C35.4202 17.6058 36.3469 18.2021 38.7856 19.081C41.0645 19.9029 39.9071 22.5928 39.9071 22.5928L33.1774 35.9007C32.6284 37.2219 32.731 38.0059 33.3642 38.1186C34.3825 38.3009 35.7774 38.084 36.9161 38.1194Z" fill="url(#paint0_linear)"/>
<defs>
<linearGradient id="paint0_linear" x1="37.5012" y1="-0.00198364" x2="37.5012" y2="74.997" gradientUnits="userSpaceOnUse">
<stop stop-color="#FFE88B"/>
<stop offset="0.53125" stop-color="#FF0000"/>
<stop offset="1" stop-color="#0A00B2"/>
</linearGradient>
</defs>
</svg>
